<svg xmlns="http://www.w3.org/2000/svg" width="220" height="44" viewBox="0 0 220 44" fill="none">
  <rect x="1" y="1" width="42" height="42" rx="10" stroke="currentColor" stroke-width="2"/>
  <path d="M13 30L22 12L31 30" stroke="currentColor" stroke-width="2.5" stroke-linecap="round" stroke-linejoin="round"/>
  <path d="M51 30V14h6.5c3.6 0 6 2.2 6 5.3 0 3.2-2.4 5.4-6 5.4H54.5V30H51Zm3.5-8.2h3c1.8 0 2.9-1 2.9-2.5s-1.1-2.4-2.9-2.4h-3v4.9Z" fill="currentColor"/>
  <path d="M78.2 30l-5.2-16h3.7l3.2 11.2L83 14h3.5l3.2 11.2L93 14h3.6l-5.2 16h-3.6L84.8 19l-3.1 11h-3.5Z" fill="currentColor"/>
  <path d="M101.7 30V14h12.1v2.9h-8.6v3.6h7.9v2.8h-7.9V27h8.7v3h-12.2Z" fill="currentColor"/>
  <path d="M120.4 30V14h7.1c4.9 0 8.1 3.2 8.1 8 0 4.7-3.2 8-8.1 8h-7.1Zm3.5-3h3.2c2.9 0 4.9-2 4.9-5s-2-5.1-4.9-5.1h-3.2V27Z" fill="currentColor"/>
  <path d="M141.3 30V14h3.5v16h-3.5Z" fill="currentColor"/>
  <path d="M152.6 30V17h-5.1v-3h13.8v3h-5.2v13h-3.5Z" fill="currentColor"/>
</svg>
